<svg xmlns="http://www.w3.org/2000/svg" xmlns:xlink="http://www.w3.org/1999/xlink" width="500" zoomAndPan="magnify" viewBox="0 0 375 374.999991" height="500" preserveAspectRatio="xMidYMid meet" version="1.0"><defs><g/><clipPath id="792cf37f71"><path d="M 54.027344 65 L 336 65 L 336 328 L 54.027344 328 Z M 54.027344 65 " clip-rule="nonzero"/></clipPath><clipPath id="94fca64d51"><path d="M 228 50 L 324 50 L 324 128 L 228 128 Z M 228 50 " clip-rule="nonzero"/></clipPath><clipPath id="6c15c950b9"><path d="M 230 46.042969 L 325.496094 55.878906 L 318.042969 128.246094 L 222.546875 118.410156 Z M 230 46.042969 " clip-rule="nonzero"/></clipPath><clipPath id="68e15bcaf3"><path d="M 230 46.042969 L 325.496094 55.878906 L 318.042969 128.246094 L 222.546875 118.410156 Z M 230 46.042969 " clip-rule="nonzero"/></clipPath></defs><g clip-path="url(#792cf37f71)"><path fill="#ffb17f" d="M 332.351562 229.0625 L 326.980469 245.980469 C 312.746094 279.246094 288.75 302.828125 254.992188 316.734375 C 221.042969 330.578125 184.90625 330.832031 146.582031 317.503906 C 110.421875 303.042969 84.296875 279.804688 68.203125 247.792969 C 63.066406 237.457031 59.382812 226.65625 57.152344 215.390625 L 55.027344 198.324219 C 54.378906 186.78125 55.4375 175.144531 58.203125 163.425781 C 67.789062 127.71875 88.332031 101.019531 119.832031 83.324219 C 151.332031 65.632812 186.605469 60.980469 225.65625 69.371094 C 264.269531 79.574219 293.613281 99.699219 313.683594 129.738281 C 333.753906 159.777344 339.980469 192.886719 332.351562 229.0625 " fill-opacity="1" fill-rule="nonzero"/></g><g clip-path="url(#94fca64d51)"><g clip-path="url(#6c15c950b9)"><g clip-path="url(#68e15bcaf3)"><path fill="#1e1e1e" d="M 238.207031 118.683594 C 239.871094 118.523438 243.191406 118.171875 246.546875 117.964844 C 249.898438 117.761719 253.28125 117.703125 256.699219 117.796875 C 260.117188 117.890625 263.566406 118.125 266.152344 118.40625 C 268.734375 118.6875 270.441406 118.914062 272.09375 119.160156 C 273.746094 119.410156 275.34375 119.679688 276.894531 119.972656 C 278.441406 120.261719 279.933594 120.570312 281.757812 120.96875 C 283.578125 121.367188 285.761719 121.875 288.011719 122.433594 C 290.257812 122.988281 292.570312 123.597656 294.949219 124.265625 C 297.324219 124.933594 299.765625 125.660156 301.65625 126.1875 C 303.546875 126.71875 304.402344 126.886719 305.1875 127.003906 C 305.976562 127.121094 306.769531 127.183594 307.902344 127.066406 C 309.035156 126.949219 311.328125 125.726562 312.320312 121.707031 C 313.308594 117.6875 313.65625 113.652344 314.535156 108.824219 C 315.417969 103.996094 316.75 98.375 318.582031 91.992188 C 320.414062 85.605469 322.773438 78.472656 323.292969 71.90625 C 323.808594 65.339844 320.4375 64.625 319.3125 65.128906 C 318.1875 65.632812 317.660156 66.070312 317.199219 66.527344 C 316.738281 66.984375 316.261719 67.507812 315.53125 68.351562 C 314.800781 69.195312 313.5 70.726562 311.738281 72.8125 C 309.976562 74.898438 307.746094 77.542969 305.0625 80.765625 C 302.375 83.988281 299.195312 87.753906 297.34375 89.96875 C 295.492188 92.179688 295.320312 92.363281 295.265625 92.421875 C 295.210938 92.480469 295.332031 92.425781 295.71875 92.347656 C 296.105469 92.273438 296.765625 92.132812 296.976562 92.195312 C 297.191406 92.253906 297.128906 92.183594 296.808594 91.816406 C 296.492188 91.449219 296.019531 90.792969 295.453125 89.867188 C 294.890625 88.945312 294.25 87.765625 293.695312 86.652344 C 293.140625 85.539062 292.492188 84.046875 291.484375 81.59375 C 290.476562 79.140625 289.164062 75.746094 287.53125 71.433594 C 285.902344 67.121094 283.949219 61.894531 282.730469 58.636719 C 281.507812 55.375 281.230469 54.785156 280.878906 54.191406 C 280.53125 53.601562 280.058594 52.988281 279.339844 52.351562 C 278.625 51.71875 277.523438 51.15625 276.515625 50.941406 C 275.507812 50.726562 273.421875 51.066406 272.238281 51.851562 C 271.058594 52.640625 270.4375 53.382812 270.003906 54.070312 C 269.570312 54.757812 269.214844 55.449219 266.070312 63.148438 C 262.929688 70.84375 257.410156 85.515625 257.210938 86 C 257.011719 86.484375 256.832031 86.890625 256.707031 87.148438 C 256.578125 87.40625 256.539062 87.488281 256.679688 87.324219 C 256.824219 87.160156 261.484375 85.722656 261.371094 85.566406 C 261.253906 85.414062 259.535156 84.175781 256.882812 82 C 254.226562 79.828125 250.722656 76.78125 246.40625 72.886719 C 242.085938 68.992188 236.921875 64.25 236.3125 63.789062 C 235.703125 63.328125 235.019531 62.960938 234.042969 62.710938 C 233.0625 62.460938 231.773438 62.546875 230.578125 63.152344 C 229.386719 63.757812 227.832031 67.074219 228.160156 70.152344 C 228.484375 73.234375 229.253906 76.921875 230.429688 81.289062 C 231.605469 85.65625 233.199219 90.726562 234.796875 94.808594 C 236.394531 98.886719 241.414062 97.4375 240.609375 94.652344 C 240.609375 94.652344 239.785156 88.894531 238.796875 84.125 C 237.808594 79.359375 237.15625 75.429688 236.863281 72.382812 C 236.570312 69.332031 236.605469 67.214844 235.535156 69.027344 C 234.464844 70.839844 233.449219 71.195312 232.59375 71.171875 C 231.738281 71.144531 231.253906 70.972656 231.054688 70.867188 C 230.859375 70.761719 230.675781 70.609375 235.257812 75.4375 C 239.839844 80.269531 243.753906 84.214844 246.984375 87.300781 C 250.214844 90.382812 252.804688 92.625 254.96875 94.148438 C 257.128906 95.675781 259.707031 96.554688 262.503906 95.339844 C 265.304688 94.128906 265.753906 93.5 266.109375 92.894531 C 266.46875 92.289062 266.789062 91.660156 267.101562 90.976562 C 267.414062 90.292969 267.769531 89.445312 273.148438 74.71875 C 278.53125 59.988281 278.621094 59.738281 278.699219 59.542969 C 278.777344 59.351562 278.734375 59.390625 278.371094 59.726562 C 278.007812 60.066406 276.945312 60.628906 275.640625 60.710938 C 274.335938 60.792969 273.917969 60.644531 273.3125 60.273438 C 272.710938 59.902344 272.460938 59.640625 272.398438 59.542969 C 272.339844 59.449219 272.390625 59.507812 272.488281 59.671875 C 272.582031 59.832031 275.140625 65.511719 277.324219 70.324219 C 279.503906 75.136719 281.308594 79.066406 282.730469 82.125 C 284.148438 85.183594 285.199219 87.382812 285.914062 88.746094 C 286.628906 90.105469 287.464844 91.558594 288.273438 92.84375 C 289.082031 94.125 289.871094 95.226562 290.667969 96.164062 C 291.46875 97.101562 292.339844 97.898438 293.304688 98.472656 C 294.265625 99.046875 295.207031 99.351562 296.273438 99.234375 C 297.34375 99.121094 298.1875 98.832031 298.847656 98.445312 C 299.507812 98.054688 300.058594 97.605469 300.5625 97.109375 C 301.066406 96.613281 304.738281 92.621094 307.910156 89.1875 C 311.078125 85.75 313.769531 82.875 315.953125 80.546875 C 318.136719 78.214844 319.835938 76.449219 321.03125 75.230469 C 322.222656 74.015625 322.6875 73.546875 323.003906 73.25 C 323.320312 72.957031 323.480469 72.824219 323.316406 72.941406 C 323.148438 73.054688 321.957031 73.460938 319.558594 70.496094 C 317.164062 67.53125 313.878906 75.054688 311.140625 82.046875 C 308.40625 89.039062 306.292969 95.433594 304.851562 101.253906 C 303.40625 107.074219 302.605469 112.324219 302.425781 116.859375 C 302.246094 121.390625 304.089844 117.402344 305.5 116.792969 C 306.910156 116.179688 307.144531 116.179688 306.9375 116.164062 C 306.730469 116.148438 306.253906 116.082031 305.699219 115.988281 C 305.144531 115.898438 302.648438 115.257812 300.089844 114.640625 C 297.53125 114.023438 295.035156 113.464844 292.597656 112.964844 C 290.15625 112.464844 287.777344 112.03125 285.46875 111.664062 C 283.160156 111.296875 281.574219 111.066406 279.925781 110.867188 C 278.277344 110.667969 276.585938 110.492188 274.851562 110.34375 C 273.117188 110.191406 271.339844 110.0625 269.488281 109.957031 C 267.632812 109.847656 263.921875 109.792969 260.242188 109.886719 C 256.5625 109.980469 252.9375 110.246094 249.371094 110.667969 C 245.800781 111.089844 242.292969 111.683594 240.542969 112.109375 C 237.113281 112.851562 239.890625 118.371094 238.207031 118.683594 Z M 238.207031 118.683594 " fill-opacity="1" fill-rule="nonzero"/></g></g></g><g fill="#1e1e1e" fill-opacity="1"><g transform="translate(71.018028, 177.161203)"><g><path d="M 3.375 -102.546875 L 31.578125 -103.453125 L 28.078125 -2.59375 L 2.59375 0.125 Z M 3.375 -102.546875 "/></g></g></g><g fill="#1e1e1e" fill-opacity="1"><g transform="translate(54.880657, 297.852751)"><g><path d="M 2.875 -114.46875 L 83.484375 -114.46875 L 82.203125 -86.5 L 59.390625 -85.5 L 56.234375 -2.4375 L 26.25 0.4375 L 26.96875 -85.640625 L 3.015625 -86.796875 Z M 2.875 -114.46875 "/></g></g></g><g fill="#1e1e1e" fill-opacity="1"><g transform="translate(106.371259, 174.376842)"><g><path d="M 39 -24.765625 L 57.640625 -23.453125 L 58.140625 -7.421875 L 54.4375 -0.203125 L 9.21875 0.09375 L 2.5 -3.515625 L 2 -73.578125 L 5.015625 -80.203125 L 53.125 -79.59375 L 59.140625 -74.28125 L 57.75 -52.625 L 38.796875 -52.625 L 37.09375 -63.953125 L 23.0625 -64.5625 L 23.953125 -14.84375 L 37.296875 -13.828125 Z M 39 -24.765625 "/></g></g></g><g fill="#1e1e1e" fill-opacity="1"><g transform="translate(139.823095, 276.57032)"><g><path d="M 58.984375 -21.65625 L 60.296875 -0.234375 L 2.390625 -0.234375 L 2.390625 -95.953125 L 58.390625 -94.15625 L 57.671875 -72.265625 L 26.921875 -72.625 L 26.921875 -60.65625 L 46.78125 -59.46875 L 46.78125 -38.640625 L 26.796875 -39.84375 L 26.6875 -23.453125 Z M 58.984375 -21.65625 "/></g></g></g><g fill="#1e1e1e" fill-opacity="1"><g transform="translate(167.54179, 180.194589)"><g><path d="M 58.984375 -21.65625 L 60.296875 -0.234375 L 2.390625 -0.234375 L 2.390625 -95.953125 L 58.390625 -94.15625 L 57.671875 -72.265625 L 26.921875 -72.625 L 26.921875 -60.65625 L 46.78125 -59.46875 L 46.78125 -38.640625 L 26.796875 -39.84375 L 26.6875 -23.453125 Z M 58.984375 -21.65625 "/></g></g></g><g fill="#1e1e1e" fill-opacity="1"><g transform="translate(226.231161, 174.063996)"><g><path d="M 8.015625 -51.328125 L 56.46875 -50.375 L 56.46875 -32.1875 L 7.171875 -32.65625 Z M 8.015625 -51.328125 "/></g></g></g><g fill="#1e1e1e" fill-opacity="1"><g transform="translate(250.984092, 224.204903)"><g><path d="M 10.453125 -66.921875 L 73.625 -65.671875 L 73.625 -41.96875 L 9.359375 -42.59375 Z M 10.453125 -66.921875 "/></g></g></g><g fill="#1e1e1e" fill-opacity="1"><g transform="translate(202.514391, 310.801885)"><g><path d="M 89.515625 -108.125 L 91.8125 -0.3125 L 60.078125 0.3125 L 59.171875 -37.671875 L 34.921875 -36.140625 L 32.484375 -0.453125 L 3.046875 0.15625 L 7.78125 -111.78125 L 13.71875 -118.953125 L 80.21875 -121.84375 Z M 59.015625 -60.84375 L 58.25 -91.1875 L 38.125 -89.515625 L 36.59375 -62.375 Z M 59.015625 -60.84375 "/></g></g></g><g fill="#1e1e1e" fill-opacity="1"><g transform="translate(137.732619, 333.683298)"><g><path d="M 8.015625 -51.328125 L 56.46875 -50.375 L 56.46875 -32.1875 L 7.171875 -32.65625 Z M 8.015625 -51.328125 "/></g></g></g></svg>